<svg xmlns="http://www.w3.org/2000/svg" version="1.1" xmlns:xlink="http://www.w3.org/1999/xlink" xmlns:svgjs="http://svgjs.dev/svgjs" width="1500" height="303" viewBox="0 0 1500 303"><g transform="matrix(1,0,0,1,-0.9090909090909918,-0.5857779980388784)"><svg viewBox="0 0 396 80" data-background-color="#232d3f" preserveAspectRatio="xMidYMid meet" height="303" width="1500" xmlns="http://www.w3.org/2000/svg" xmlns:xlink="http://www.w3.org/1999/xlink"><g id="tight-bounds" transform="matrix(1,0,0,1,0.2400000000000091,0.15466085756801817)"><svg viewBox="0 0 395.52 79.69067828486398" height="79.69067828486398" width="395.52"><g><svg viewBox="0 0 506.87877238480405 102.12761220556285" height="79.69067828486398" width="395.52"><g transform="matrix(1,0,0,1,111.35877238480406,14.114597634777503)"><svg viewBox="0 0 395.52 73.89841693600785" height="73.89841693600785" width="395.52"><g id="textblocktransform"><svg viewBox="0 0 395.52 73.89841693600785" height="73.89841693600785" width="395.52" id="textblock"><g><svg viewBox="0 0 395.52 41.75093772817357" height="41.75093772817357" width="395.52"><g transform="matrix(1,0,0,1,0,0)"><svg width="395.52" viewBox="3.75 -37 475.55999999999995 50.6" height="41.75093772817357" data-palette-color="#ffffff"><g class="wordmark-text-0" data-fill-palette-color="primary" id="text-0"><path d="M28.05-24.4Q28.05-21.75 26.8-19.4 25.55-17.05 22.8-15.58 20.05-14.1 15.75-14.1L15.75-14.1 9.45-14.1 9.45 0 3.75 0 3.75-34.75 15.75-34.75Q19.75-34.75 22.53-33.38 25.3-32 26.68-29.65 28.05-27.3 28.05-24.4L28.05-24.4ZM15.75-18.75Q19-18.75 20.6-20.23 22.2-21.7 22.2-24.4L22.2-24.4Q22.2-30.1 15.75-30.1L15.75-30.1 9.45-30.1 9.45-18.75 15.75-18.75ZM31.6-13.9Q31.6-18.05 33.32-21.25 35.05-24.45 38.02-26.23 41-28 44.6-28L44.6-28Q47.85-28 50.27-26.73 52.7-25.45 54.15-23.55L54.15-23.55 54.15-27.55 59.9-27.55 59.9 0 54.15 0 54.15-4.1Q52.7-2.15 50.2-0.85 47.7 0.45 44.5 0.45L44.5 0.45Q40.95 0.45 38-1.38 35.05-3.2 33.32-6.48 31.6-9.75 31.6-13.9L31.6-13.9ZM54.15-13.8Q54.15-16.65 52.97-18.75 51.8-20.85 49.9-21.95 48-23.05 45.8-23.05L45.8-23.05Q43.6-23.05 41.7-21.98 39.8-20.9 38.62-18.82 37.45-16.75 37.45-13.9L37.45-13.9Q37.45-11.05 38.62-8.9 39.8-6.75 41.72-5.63 43.65-4.5 45.8-4.5L45.8-4.5Q48-4.5 49.9-5.6 51.8-6.7 52.97-8.83 54.15-10.95 54.15-13.8L54.15-13.8ZM77.39 0.45Q74.14 0.45 71.57-0.73 68.99-1.9 67.49-3.93 65.99-5.95 65.89-8.45L65.89-8.45 71.8-8.45Q71.94-6.7 73.47-5.53 75-4.35 77.3-4.35L77.3-4.35Q79.69-4.35 81.02-5.28 82.34-6.2 82.34-7.65L82.34-7.65Q82.34-9.2 80.87-9.95 79.39-10.7 76.19-11.6L76.19-11.6Q73.09-12.45 71.14-13.25 69.19-14.05 67.77-15.7 66.34-17.35 66.34-20.05L66.34-20.05Q66.34-22.25 67.64-24.08 68.94-25.9 71.37-26.95 73.8-28 76.94-28L76.94-28Q81.64-28 84.52-25.63 87.39-23.25 87.59-19.15L87.59-19.15 81.89-19.15Q81.75-21 80.39-22.1 79.05-23.2 76.75-23.2L76.75-23.2Q74.5-23.2 73.3-22.35 72.09-21.5 72.09-20.1L72.09-20.1Q72.09-19 72.89-18.25 73.69-17.5 74.84-17.07 76-16.65 78.25-16L78.25-16Q81.25-15.2 83.17-14.38 85.09-13.55 86.5-11.95 87.89-10.35 87.94-7.7L87.94-7.7Q87.94-5.35 86.64-3.5 85.34-1.65 82.97-0.6 80.59 0.45 77.39 0.45L77.39 0.45ZM104.09 0.45Q100.84 0.45 98.27-0.73 95.69-1.9 94.19-3.93 92.69-5.95 92.59-8.45L92.59-8.45 98.49-8.45Q98.64-6.7 100.17-5.53 101.69-4.35 103.99-4.35L103.99-4.35Q106.39-4.35 107.72-5.28 109.04-6.2 109.04-7.65L109.04-7.65Q109.04-9.2 107.57-9.95 106.09-10.7 102.89-11.6L102.89-11.6Q99.79-12.45 97.84-13.25 95.89-14.05 94.47-15.7 93.04-17.35 93.04-20.05L93.04-20.05Q93.04-22.25 94.34-24.08 95.64-25.9 98.07-26.95 100.49-28 103.64-28L103.64-28Q108.34-28 111.22-25.63 114.09-23.25 114.29-19.15L114.29-19.15 108.59-19.15Q108.44-21 107.09-22.1 105.74-23.2 103.44-23.2L103.44-23.2Q101.19-23.2 99.99-22.35 98.79-21.5 98.79-20.1L98.79-20.1Q98.79-19 99.59-18.25 100.39-17.5 101.54-17.07 102.69-16.65 104.94-16L104.94-16Q107.94-15.2 109.87-14.38 111.79-13.55 113.19-11.95 114.59-10.35 114.64-7.7L114.64-7.7Q114.64-5.35 113.34-3.5 112.04-1.65 109.67-0.6 107.29 0.45 104.09 0.45L104.09 0.45ZM152.19-27.55L157.79-27.55 149.24 0 143.24 0 137.69-20.35 132.14 0 126.14 0 117.54-27.55 123.34-27.55 129.09-5.4 134.94-27.55 140.89-27.55 146.49-5.5 152.19-27.55ZM173.99 0.45Q170.09 0.45 166.94-1.33 163.79-3.1 161.99-6.33 160.19-9.55 160.19-13.8L160.19-13.8Q160.19-18 162.04-21.25 163.89-24.5 167.09-26.25 170.29-28 174.24-28L174.24-28Q178.19-28 181.39-26.25 184.59-24.5 186.44-21.25 188.29-18 188.29-13.8L188.29-13.8Q188.29-9.6 186.39-6.35 184.49-3.1 181.21-1.33 177.94 0.45 173.99 0.45L173.99 0.45ZM173.99-4.5Q176.19-4.5 178.11-5.55 180.04-6.6 181.24-8.7 182.44-10.8 182.44-13.8L182.44-13.8Q182.44-16.8 181.29-18.88 180.14-20.95 178.24-22 176.34-23.05 174.14-23.05L174.14-23.05Q171.94-23.05 170.06-22 168.19-20.95 167.09-18.88 165.99-16.8 165.99-13.8L165.99-13.8Q165.99-9.35 168.26-6.93 170.54-4.5 173.99-4.5L173.99-4.5ZM199.64-23.55Q200.89-25.65 202.96-26.83 205.04-28 207.89-28L207.89-28 207.89-22.1 206.44-22.1Q203.09-22.1 201.36-20.4 199.64-18.7 199.64-14.5L199.64-14.5 199.64 0 193.94 0 193.94-27.55 199.64-27.55 199.64-23.55ZM211.23-13.9Q211.23-18.05 212.96-21.25 214.68-24.45 217.66-26.23 220.63-28 224.28-28L224.28-28Q226.98-28 229.61-26.83 232.23-25.65 233.78-23.7L233.78-23.7 233.78-37 239.53-37 239.53 0 233.78 0 233.78-4.15Q232.38-2.15 229.91-0.85 227.43 0.45 224.23 0.45L224.23 0.45Q220.63 0.45 217.66-1.38 214.68-3.2 212.96-6.48 211.23-9.75 211.23-13.9L211.23-13.9ZM233.78-13.8Q233.78-16.65 232.61-18.75 231.43-20.85 229.53-21.95 227.63-23.05 225.43-23.05L225.43-23.05Q223.23-23.05 221.33-21.98 219.43-20.9 218.26-18.82 217.08-16.75 217.08-13.9L217.08-13.9Q217.08-11.05 218.26-8.9 219.43-6.75 221.36-5.63 223.28-4.5 225.43-4.5L225.43-4.5Q227.63-4.5 229.53-5.6 231.43-6.7 232.61-8.83 233.78-10.95 233.78-13.8L233.78-13.8Z" fill="#ffffff" data-fill-palette-color="primary"></path><path d="M286.78-34.75L292.88-34.75 292.88 0 287.18 0 287.18-23.8 276.58 0 272.63 0 261.98-23.8 261.98 0 256.28 0 256.28-34.75 262.43-34.75 274.63-7.5 286.78-34.75ZM298.48-13.9Q298.48-18.05 300.2-21.25 301.93-24.45 304.9-26.23 307.87-28 311.48-28L311.48-28Q314.73-28 317.15-26.73 319.58-25.45 321.03-23.55L321.03-23.55 321.03-27.55 326.78-27.55 326.78 0 321.03 0 321.03-4.1Q319.58-2.15 317.08-0.85 314.58 0.45 311.37 0.45L311.37 0.45Q307.83 0.45 304.87-1.38 301.93-3.2 300.2-6.48 298.48-9.75 298.48-13.9L298.48-13.9ZM321.03-13.8Q321.03-16.65 319.85-18.75 318.68-20.85 316.78-21.95 314.87-23.05 312.68-23.05L312.68-23.05Q310.48-23.05 308.58-21.98 306.68-20.9 305.5-18.82 304.33-16.75 304.33-13.9L304.33-13.9Q304.33-11.05 305.5-8.9 306.68-6.75 308.6-5.63 310.53-4.5 312.68-4.5L312.68-4.5Q314.87-4.5 316.78-5.6 318.68-6.7 319.85-8.83 321.03-10.95 321.03-13.8L321.03-13.8ZM348.17-28Q351.42-28 354-26.65 356.57-25.3 358.02-22.65 359.47-20 359.47-16.25L359.47-16.25 359.47 0 353.82 0 353.82-15.4Q353.82-19.1 351.97-21.08 350.12-23.05 346.92-23.05L346.92-23.05Q343.72-23.05 341.85-21.08 339.97-19.1 339.97-15.4L339.97-15.4 339.97 0 334.27 0 334.27-27.55 339.97-27.55 339.97-24.4Q341.37-26.1 343.55-27.05 345.72-28 348.17-28L348.17-28ZM364.82-13.9Q364.82-18.05 366.55-21.25 368.27-24.45 371.25-26.23 374.22-28 377.82-28L377.82-28Q381.07-28 383.5-26.73 385.92-25.45 387.37-23.55L387.37-23.55 387.37-27.55 393.12-27.55 393.12 0 387.37 0 387.37-4.1Q385.92-2.15 383.42-0.85 380.92 0.45 377.72 0.45L377.72 0.45Q374.17 0.45 371.22-1.38 368.27-3.2 366.55-6.48 364.82-9.75 364.82-13.9L364.82-13.9ZM387.37-13.8Q387.37-16.65 386.2-18.75 385.02-20.85 383.12-21.95 381.22-23.05 379.02-23.05L379.02-23.05Q376.82-23.05 374.92-21.98 373.02-20.9 371.84-18.82 370.67-16.75 370.67-13.9L370.67-13.9Q370.67-11.05 371.84-8.9 373.02-6.75 374.95-5.63 376.87-4.5 379.02-4.5L379.02-4.5Q381.22-4.5 383.12-5.6 385.02-6.7 386.2-8.83 387.37-10.95 387.37-13.8L387.37-13.8ZM411.72-28Q414.92-28 417.39-26.73 419.87-25.45 421.27-23.55L421.27-23.55 421.27-27.55 427.02-27.55 427.02 0.45Q427.02 4.25 425.42 7.23 423.82 10.2 420.79 11.9 417.77 13.6 413.57 13.6L413.57 13.6Q407.97 13.6 404.27 10.98 400.57 8.35 400.07 3.85L400.07 3.85 405.72 3.85Q406.37 6 408.49 7.33 410.62 8.65 413.57 8.65L413.57 8.65Q417.02 8.65 419.14 6.55 421.27 4.45 421.27 0.45L421.27 0.45 421.27-4.15Q419.82-2.2 417.34-0.88 414.87 0.45 411.72 0.45L411.72 0.45Q408.12 0.45 405.14-1.38 402.17-3.2 400.44-6.48 398.72-9.75 398.72-13.9L398.72-13.9Q398.72-18.05 400.44-21.25 402.17-24.45 405.14-26.23 408.12-28 411.72-28L411.72-28ZM421.27-13.8Q421.27-16.65 420.09-18.75 418.92-20.85 417.02-21.95 415.12-23.05 412.92-23.05L412.92-23.05Q410.72-23.05 408.82-21.98 406.92-20.9 405.74-18.82 404.57-16.75 404.57-13.9L404.57-13.9Q404.57-11.05 405.74-8.9 406.92-6.75 408.84-5.63 410.77-4.5 412.92-4.5L412.92-4.5Q415.12-4.5 417.02-5.6 418.92-6.7 420.09-8.83 421.27-10.95 421.27-13.8L421.27-13.8ZM459.77-14.45Q459.77-12.9 459.57-11.65L459.57-11.65 438.52-11.65Q438.77-8.35 440.97-6.35 443.17-4.35 446.37-4.35L446.37-4.35Q450.97-4.35 452.87-8.2L452.87-8.2 459.02-8.2Q457.77-4.4 454.49-1.98 451.22 0.45 446.37 0.45L446.37 0.45Q442.42 0.45 439.29-1.33 436.17-3.1 434.39-6.33 432.62-9.55 432.62-13.8L432.62-13.8Q432.62-18.05 434.34-21.28 436.07-24.5 439.19-26.25 442.32-28 446.37-28L446.37-28Q450.27-28 453.32-26.3 456.37-24.6 458.07-21.53 459.77-18.45 459.77-14.45L459.77-14.45ZM438.57-16.25L453.82-16.25Q453.77-19.4 451.57-21.3 449.37-23.2 446.12-23.2L446.12-23.2Q443.17-23.2 441.07-21.33 438.97-19.45 438.57-16.25L438.57-16.25ZM471.06-23.55Q472.31-25.65 474.39-26.83 476.46-28 479.31-28L479.31-28 479.31-22.1 477.86-22.1Q474.51-22.1 472.79-20.4 471.06-18.7 471.06-14.5L471.06-14.5 471.06 0 465.36 0 465.36-27.55 471.06-27.55 471.06-23.55Z" fill="#b2fcfb" data-fill-palette-color="accent"></path></g></svg></g></svg></g><g transform="matrix(1,0,0,1,0,51.60733210328987)"><svg viewBox="0 0 232.20979199999996 22.291084832717974" height="22.291084832717974" width="232.20979199999996"><g transform="matrix(1,0,0,1,0,0)"><svg width="232.20979199999996" viewBox="1.9 -43.4 528.09 50.699999999999996" height="22.291084832717974" data-palette-color="#ffffff"><path d="M10.45 0L1.9 0 1.9-42.95 10.4-42.95 10.4-25.75 14.4-42.95 23.05-42.95 18.25-23.3 24.05 0 15.15 0 10.45-20.8 10.45 0ZM35.6 0.4Q29.95 0.4 27.5-2.7 25.05-5.8 25.05-11.95L25.05-11.95 25.05-26.65Q25.05-31.7 27.95-34.35 30.85-37 36.05-37L36.05-37Q46.6-37 46.6-26.65L46.6-26.65 46.6-24Q46.6-20 46.5-17.5L46.5-17.5 33.8-17.5 33.8-10.4Q33.8-8.5 34.2-7.43 34.6-6.35 35.9-6.35L35.9-6.35Q36.9-6.35 37.32-6.95 37.75-7.55 37.82-8.33 37.9-9.1 37.9-10.6L37.9-10.6 37.9-14.15 46.6-14.15 46.6-12.05Q46.6-5.65 44.12-2.63 41.65 0.4 35.6 0.4L35.6 0.4ZM33.75-21.85L37.9-21.85 37.9-26.55Q37.9-30.5 35.95-30.5L35.95-30.5Q33.75-30.5 33.75-26.55L33.75-26.55 33.75-21.85ZM60 0.4Q54.35 0.4 51.9-2.7 49.45-5.8 49.45-11.95L49.45-11.95 49.45-26.65Q49.45-31.7 52.35-34.35 55.25-37 60.45-37L60.45-37Q71-37 71-26.65L71-26.65 71-24Q71-20 70.9-17.5L70.9-17.5 58.2-17.5 58.2-10.4Q58.2-8.5 58.6-7.43 59-6.35 60.3-6.35L60.3-6.35Q61.3-6.35 61.72-6.95 62.15-7.55 62.22-8.33 62.3-9.1 62.3-10.6L62.3-10.6 62.3-14.15 71-14.15 71-12.05Q71-5.65 68.52-2.63 66.05 0.4 60 0.4L60 0.4ZM58.15-21.85L62.3-21.85 62.3-26.55Q62.3-30.5 60.35-30.5L60.35-30.5Q58.15-30.5 58.15-26.55L58.15-26.55 58.15-21.85ZM74.14 7.3L74.14-36.6 83.04-36.6 83.04-34.65Q84.94-37 88.29-37L88.29-37Q92.54-37 94.22-34.15 95.89-31.3 95.89-26.25L95.89-26.25 95.89-12.7Q95.89-8.4 95.39-5.68 94.89-2.95 93.19-1.28 91.49 0.4 88.04 0.4L88.04 0.4Q84.74 0.4 83.04-1.45L83.04-1.45 83.04 7.3 74.14 7.3ZM85.14-6.4Q86.34-6.4 86.69-7.5 87.04-8.6 87.04-10.7L87.04-10.7 87.04-26.25Q87.04-28.15 86.69-29.15 86.34-30.15 85.09-30.15L85.09-30.15Q83.04-30.15 83.04-26.35L83.04-26.35 83.04-10.3Q83.04-8.45 83.47-7.43 83.89-6.4 85.14-6.4L85.14-6.4ZM120.89 0.4Q110.04 0.4 110.04-10.6L110.04-10.6 110.09-13.5 118.84-13.5 118.89-9.2Q118.89-7.9 119.39-7.23 119.89-6.55 121.04-6.55L121.04-6.55Q122.79-6.55 122.79-9.4L122.79-9.4Q122.79-11.5 121.96-12.7 121.14-13.9 119.34-15.25L119.34-15.25 114.69-18.85Q112.29-20.7 111.24-22.68 110.19-24.65 110.19-28.25L110.19-28.25Q110.19-31.05 111.66-33.02 113.14-35 115.59-36 118.04-37 121.04-37L121.04-37Q131.69-37 131.69-26.4L131.69-26.4 131.69-25.7 122.64-25.7 122.64-27.1Q122.64-28.4 122.21-29.33 121.79-30.25 120.79-30.25L120.79-30.25Q119.89-30.25 119.41-29.73 118.94-29.2 118.94-28.3L118.94-28.3Q118.94-26.3 120.49-25.2L120.49-25.2 125.89-21.25Q128.79-19.1 130.34-16.57 131.89-14.05 131.89-10.2L131.89-10.2Q131.89-5.1 128.99-2.35 126.09 0.4 120.89 0.4L120.89 0.4ZM141.24 0.4Q136.99 0.4 135.41-2.43 133.84-5.25 133.84-10.5L133.84-10.5Q133.84-14.8 134.96-17.1 136.09-19.4 138.09-20.48 140.09-21.55 144.19-22.85L144.19-22.85 146.59-23.65 146.59-23.75 146.59-27.4Q146.59-28.85 146.01-29.63 145.44-30.4 144.64-30.4L144.64-30.4Q143.94-30.4 143.41-29.75 142.89-29.1 142.89-28L142.89-28 142.89-25.8 134.39-25.8 134.39-27Q134.39-32.4 136.91-34.7 139.44-37 145.14-37L145.14-37Q149.69-37 152.54-34.63 155.39-32.25 155.39-27.9L155.39-27.9 155.39 0 146.69 0 146.69-4.35Q146.04-2.1 144.61-0.85 143.19 0.4 141.24 0.4L141.24 0.4ZM144.69-6.4Q145.69-6.4 146.11-7.23 146.54-8.05 146.54-9.25L146.54-9.25 146.54-19.45Q144.59-18.7 143.66-17.55 142.74-16.4 142.74-14.35L142.74-14.35 142.74-9.65Q142.74-6.4 144.69-6.4L144.69-6.4ZM159.53 0L159.53-28.35 157.98-28.35 158.03-35 159.53-35 159.53-37.5Q159.53-43.4 165.43-43.4L165.43-43.4Q168.23-43.4 169.93-42.7L169.93-42.7 169.93-37.3Q169.43-37.45 169.13-37.45L169.13-37.45Q168.43-37.45 168.23-36.95 168.03-36.45 168.03-35.45L168.03-35.45 168.03-35 169.93-35 169.93-28.25 168.23-28.25 168.23 0 159.53 0ZM182.98 0.4Q177.33 0.4 174.88-2.7 172.43-5.8 172.43-11.95L172.43-11.95 172.43-26.65Q172.43-31.7 175.33-34.35 178.23-37 183.43-37L183.43-37Q193.98-37 193.98-26.65L193.98-26.65 193.98-24Q193.98-20 193.88-17.5L193.88-17.5 181.18-17.5 181.18-10.4Q181.18-8.5 181.58-7.43 181.98-6.35 183.28-6.35L183.28-6.35Q184.28-6.35 184.71-6.95 185.13-7.55 185.21-8.33 185.28-9.1 185.28-10.6L185.28-10.6 185.28-14.15 193.98-14.15 193.98-12.05Q193.98-5.65 191.51-2.63 189.03 0.4 182.98 0.4L182.98 0.4ZM181.13-21.85L185.28-21.85 185.28-26.55Q185.28-30.5 183.33-30.5L183.33-30.5Q181.13-30.5 181.13-26.55L181.13-26.55 181.13-21.85ZM208.13 6.1L208.13 0.55 212.33 0.55Q213.23 0.55 213.23-0.2L213.23-0.2Q213.23-0.55 213.18-0.75L213.18-0.75 207.48-36.6 215.83-36.6 217.48-18.75 218.28-9.65 219.23-18.75 221.18-36.6 229.58-36.6 222.78 1.9Q222.43 4.05 221.35 5.08 220.28 6.1 217.98 6.1L217.98 6.1 208.13 6.1ZM242.52 0.4Q231.57 0.4 231.57-10.95L231.57-10.95 231.57-25.65Q231.57-30.85 234.5-33.93 237.42-37 242.52-37L242.52-37Q247.62-37 250.55-33.93 253.47-30.85 253.47-25.65L253.47-25.65 253.47-10.95Q253.47 0.4 242.52 0.4L242.52 0.4ZM242.52-6.35Q243.57-6.35 244.07-7.1 244.57-7.85 244.57-9.15L244.57-9.15 244.57-27.05Q244.57-30.25 242.52-30.25L242.52-30.25Q240.47-30.25 240.47-27.05L240.47-27.05 240.47-9.15Q240.47-7.85 240.97-7.1 241.47-6.35 242.52-6.35L242.52-6.35ZM263.77 0.4Q259.67 0.4 258.15-2.05 256.62-4.5 256.62-9.35L256.62-9.35 256.62-36.6 265.42-36.6 265.42-11.1Q265.42-10.75 265.42-9.22 265.42-7.7 265.9-7.08 266.37-6.45 267.37-6.45L267.37-6.45Q268.72-6.45 269.07-7.58 269.42-8.7 269.42-10.8L269.42-10.8 269.42-11.1 269.47-36.6 278.17-36.6 278.17 0 269.42 0 269.42-3.9Q268.52-1.6 267.32-0.6 266.12 0.4 263.77 0.4L263.77 0.4ZM281.67 0L281.67-36.6 290.42-36.6 290.42-32.55Q291.07-34.7 292.69-35.88 294.32-37.05 296.72-37.05L296.72-37.05 296.72-29.75Q294.87-29.75 292.64-29.23 290.42-28.7 290.42-28L290.42-28 290.42 0 281.67 0ZM310.56 7.3L310.56-36.6 319.46-36.6 319.46-34.65Q321.36-37 324.71-37L324.71-37Q328.96-37 330.64-34.15 332.31-31.3 332.31-26.25L332.31-26.25 332.31-12.7Q332.31-8.4 331.81-5.68 331.31-2.95 329.61-1.28 327.91 0.4 324.46 0.4L324.46 0.4Q321.16 0.4 319.46-1.45L319.46-1.45 319.46 7.3 310.56 7.3ZM321.56-6.4Q322.76-6.4 323.11-7.5 323.46-8.6 323.46-10.7L323.46-10.7 323.46-26.25Q323.46-28.15 323.11-29.15 322.76-30.15 321.51-30.15L321.51-30.15Q319.46-30.15 319.46-26.35L319.46-26.35 319.46-10.3Q319.46-8.45 319.89-7.43 320.31-6.4 321.56-6.4L321.56-6.4ZM342.21 0.4Q337.96 0.4 336.39-2.43 334.81-5.25 334.81-10.5L334.81-10.5Q334.81-14.8 335.94-17.1 337.06-19.4 339.06-20.48 341.06-21.55 345.16-22.85L345.16-22.85 347.56-23.65 347.56-23.75 347.56-27.4Q347.56-28.85 346.99-29.63 346.41-30.4 345.61-30.4L345.61-30.4Q344.91-30.4 344.39-29.75 343.86-29.1 343.86-28L343.86-28 343.86-25.8 335.36-25.8 335.36-27Q335.36-32.4 337.89-34.7 340.41-37 346.11-37L346.11-37Q350.66-37 353.51-34.63 356.36-32.25 356.36-27.9L356.36-27.9 356.36 0 347.66 0 347.66-4.35Q347.01-2.1 345.59-0.85 344.16 0.4 342.21 0.4L342.21 0.4ZM345.66-6.4Q346.66-6.4 347.09-7.23 347.51-8.05 347.51-9.25L347.51-9.25 347.51-19.45Q345.56-18.7 344.64-17.55 343.71-16.4 343.71-14.35L343.71-14.35 343.71-9.65Q343.71-6.4 345.66-6.4L345.66-6.4ZM369.76 0.4Q358.91 0.4 358.91-10.6L358.91-10.6 358.96-13.5 367.71-13.5 367.76-9.2Q367.76-7.9 368.26-7.23 368.76-6.55 369.91-6.55L369.91-6.55Q371.66-6.55 371.66-9.4L371.66-9.4Q371.66-11.5 370.83-12.7 370.01-13.9 368.21-15.25L368.21-15.25 363.56-18.85Q361.16-20.7 360.11-22.68 359.06-24.65 359.06-28.25L359.06-28.25Q359.06-31.05 360.53-33.02 362.01-35 364.46-36 366.91-37 369.91-37L369.91-37Q380.56-37 380.56-26.4L380.56-26.4 380.56-25.7 371.51-25.7 371.51-27.1Q371.51-28.4 371.08-29.33 370.66-30.25 369.66-30.25L369.66-30.25Q368.76-30.25 368.28-29.73 367.81-29.2 367.81-28.3L367.81-28.3Q367.81-26.3 369.36-25.2L369.36-25.2 374.76-21.25Q377.66-19.1 379.21-16.57 380.76-14.05 380.76-10.2L380.76-10.2Q380.76-5.1 377.86-2.35 374.96 0.4 369.76 0.4L369.76 0.4ZM393.51 0.4Q382.66 0.4 382.66-10.6L382.66-10.6 382.71-13.5 391.46-13.5 391.51-9.2Q391.51-7.9 392.01-7.23 392.51-6.55 393.66-6.55L393.66-6.55Q395.41-6.55 395.41-9.4L395.41-9.4Q395.41-11.5 394.58-12.7 393.76-13.9 391.96-15.25L391.96-15.25 387.31-18.85Q384.91-20.7 383.86-22.68 382.81-24.65 382.81-28.25L382.81-28.25Q382.81-31.05 384.28-33.02 385.76-35 388.21-36 390.66-37 393.66-37L393.66-37Q404.31-37 404.31-26.4L404.31-26.4 404.31-25.7 395.26-25.7 395.26-27.1Q395.26-28.4 394.83-29.33 394.41-30.25 393.41-30.25L393.41-30.25Q392.51-30.25 392.03-29.73 391.56-29.2 391.56-28.3L391.56-28.3Q391.56-26.3 393.11-25.2L393.11-25.2 398.51-21.25Q401.41-19.1 402.96-16.57 404.51-14.05 404.51-10.2L404.51-10.2Q404.51-5.1 401.61-2.35 398.71 0.4 393.51 0.4L393.51 0.4ZM420.75 0L411.05 0 406.6-36.6 414.1-36.6 416.55-16.95 418.65-36.6 426.3-36.6 428.8-16.95 430.85-36.6 439.1-36.6 434.4 0 425.65 0 423.05-20.8 420.75 0ZM452.65 0.4Q441.7 0.4 441.7-10.95L441.7-10.95 441.7-25.65Q441.7-30.85 444.63-33.93 447.55-37 452.65-37L452.65-37Q457.75-37 460.68-33.93 463.6-30.85 463.6-25.65L463.6-25.65 463.6-10.95Q463.6 0.4 452.65 0.4L452.65 0.4ZM452.65-6.35Q453.7-6.35 454.2-7.1 454.7-7.85 454.7-9.15L454.7-9.15 454.7-27.05Q454.7-30.25 452.65-30.25L452.65-30.25Q450.6-30.25 450.6-27.05L450.6-27.05 450.6-9.15Q450.6-7.85 451.1-7.1 451.6-6.35 452.65-6.35L452.65-6.35ZM466.85 0L466.85-36.6 475.6-36.6 475.6-32.55Q476.25-34.7 477.87-35.88 479.5-37.05 481.9-37.05L481.9-37.05 481.9-29.75Q480.05-29.75 477.82-29.23 475.6-28.7 475.6-28L475.6-28 475.6 0 466.85 0ZM491.25 0.4Q488.05 0.4 486.42-1.13 484.8-2.65 484.27-5.18 483.75-7.7 483.75-11.65L483.75-11.65 483.85-28.15Q483.85-32.05 485.82-34.52 487.8-37 491.4-37L491.4-37Q494.95-37 496.7-34.65L496.7-34.65 496.7-43.2 505.45-43.2 505.45 0 496.7 0 496.7-3.9Q495.95-1.75 494.67-0.68 493.4 0.4 491.25 0.4L491.25 0.4ZM494.6-6.45Q495.9-6.45 496.3-7.73 496.7-9 496.7-11.15L496.7-11.15 496.7-12.7 496.7-26.45Q496.7-28.05 496.25-29.15 495.8-30.25 494.65-30.25L494.65-30.25Q493.35-30.25 492.92-29.23 492.5-28.2 492.5-26.45L492.5-26.45 492.5-11.05Q492.5-6.45 494.6-6.45L494.6-6.45ZM518.99 0.4Q508.14 0.4 508.14-10.6L508.14-10.6 508.19-13.5 516.94-13.5 516.99-9.2Q516.99-7.9 517.49-7.23 517.99-6.55 519.14-6.55L519.14-6.55Q520.89-6.55 520.89-9.4L520.89-9.4Q520.89-11.5 520.07-12.7 519.24-13.9 517.44-15.25L517.44-15.25 512.79-18.85Q510.39-20.7 509.34-22.68 508.29-24.65 508.29-28.25L508.29-28.25Q508.29-31.05 509.77-33.02 511.24-35 513.69-36 516.14-37 519.14-37L519.14-37Q529.79-37 529.79-26.4L529.79-26.4 529.79-25.7 520.74-25.7 520.74-27.1Q520.74-28.4 520.32-29.33 519.89-30.25 518.89-30.25L518.89-30.25Q517.99-30.25 517.52-29.73 517.04-29.2 517.04-28.3L517.04-28.3Q517.04-26.3 518.59-25.2L518.59-25.2 523.99-21.25Q526.89-19.1 528.44-16.57 529.99-14.05 529.99-10.2L529.99-10.2Q529.99-5.1 527.09-2.35 524.19 0.4 518.99 0.4L518.99 0.4Z" opacity="1" transform="matrix(1,0,0,1,0,0)" fill="#ffffff" class="slogan-text-1" data-fill-palette-color="secondary" id="text-1"></path></svg></g></svg></g></svg></g></svg></g><g><svg viewBox="0 0 101.50237800968775 102.12761220556285" height="102.12761220556285" width="101.50237800968775"><g><svg xmlns="http://www.w3.org/2000/svg" xmlns:xlink="http://www.w3.org/1999/xlink" version="1.1" x="0" y="0" viewBox="5.274999999999999 5 89.44901210932557 90" enable-background="new 0 0 100 100" xml:space="preserve" height="102.12761220556285" width="101.50237800968775" class="icon-icon-0" data-fill-palette-color="accent" id="icon-0"><g fill="#b2fcfb" data-fill-palette-color="accent"><path d="M34.909 35.183c-16.34 0-29.634 13.294-29.634 29.634 0 16.341 13.294 29.634 29.634 29.634s29.634-13.293 29.634-29.634C64.543 48.477 51.249 35.183 34.909 35.183zM34.909 77.531c-7.011 0-12.715-5.703-12.715-12.714 0-7.013 5.704-12.717 12.715-12.717 7.012 0 12.717 5.704 12.717 12.717C47.625 71.828 41.92 77.531 34.909 77.531z" fill="#b2fcfb" data-fill-palette-color="accent"></path><circle cx="34.909" cy="64.816" r="6.5" fill="#b2fcfb" data-fill-palette-color="accent"></circle></g><g fill="#b2fcfb" data-fill-palette-color="accent"><path fill="#b2fcfb" d="M63.665 36.853c-1.338-1.378-3.114-2.136-5-2.136-3.007 0-5.599 1.839-6.614 4.605 3.53 2.382 6.536 5.481 8.819 9.082 2.221-0.742 3.904-2.497 4.535-4.795C66.073 41.185 65.423 38.66 63.665 36.853z" data-fill-palette-color="accent"></path><path fill="#b2fcfb" d="M94.177 5H46.763C33.389 5 22.507 15.881 22.507 29.256v7.452c3.796-1.681 7.99-2.623 12.401-2.623 1.961 0 3.877 0.192 5.737 0.545l-1.191-1.043c-0.146-0.127-0.183-0.339-0.089-0.508 0.851-1.542 1.828-3.007 2.902-4.354 1.068-1.341 2.281-2.619 3.602-3.8 0.145-0.128 0.359-0.14 0.516-0.025l3.658 2.657c0.909-0.546 1.834-0.992 2.812-1.353l0.205-4.516c0.008-0.193 0.149-0.354 0.341-0.387 3.445-0.597 6.985-0.597 10.431 0 0.19 0.033 0.332 0.194 0.341 0.387l0.205 4.516c0.979 0.361 1.902 0.807 2.812 1.353l3.658-2.657c0.156-0.113 0.37-0.103 0.516 0.025 1.321 1.181 2.532 2.459 3.602 3.8 1.068 1.337 2.043 2.802 2.902 4.353 0.093 0.169 0.057 0.382-0.09 0.509l-3.404 2.981c0.33 0.998 0.558 1.998 0.694 3.04l4.359 1.207c0.187 0.051 0.311 0.226 0.3 0.419-0.099 1.758-0.341 3.501-0.723 5.181-0.385 1.683-0.922 3.359-1.597 4.985-0.075 0.179-0.262 0.279-0.455 0.247l-4.45-0.805c-0.574 0.881-1.213 1.683-1.945 2.438l1.776 4.159c0.076 0.179 0.017 0.385-0.14 0.497-1.432 1.018-2.946 1.916-4.504 2.666-0.674 0.324-1.418 0.636-2.226 0.946 0.114 1.074 0.176 2.164 0.176 3.269 0 14.978-10.772 27.479-24.975 30.183h53.511c0.304 0 0.549-0.245 0.549-0.549V5.549C94.726 5.246 94.48 5 94.177 5z" data-fill-palette-color="accent"></path></g></svg></g></svg></g></svg></g><defs></defs></svg><rect width="395.52" height="79.69067828486398" fill="none" stroke="none" visibility="hidden"></rect></g></svg></g></svg>